<?xml version="1.0" encoding="UTF-8"?>
<svg id="Capa_1" data-name="Capa 1" xmlns="http://www.w3.org/2000/svg" viewBox="0 0 104.5 62.56">
  <defs>
    <style>
      .cls-1, .cls-2 {
        stroke-width: 0px;
      }

      .cls-2 {
        fill: #fff;
      }
    </style>
  </defs>
  <path class="cls-1" d="M80.18,28.97c0-12.61-10.23-22.84-22.84-22.84s-22.84,10.23-22.84,22.84c0,11.4,8.35,20.85,19.27,22.56v-15.96h-5.8v-6.6h5.8v-5.03c0-5.72,3.41-8.89,8.63-8.89,2.5,0,5.11.45,5.11.45v5.62h-2.88c-2.84,0-3.72,1.76-3.72,3.57v4.28h6.33l-1.01,6.6h-5.32v15.96c10.92-1.71,19.27-11.16,19.27-22.56Z"/>
  <path class="cls-2" d="M66.23,35.57l1.01-6.6h-6.33v-4.28c0-1.81.88-3.57,3.72-3.57h2.88v-5.62s-2.61-.45-5.11-.45c-5.22,0-8.63,3.16-8.63,8.89v5.03h-5.8v6.6h5.8v15.96c1.16.18,2.35.28,3.57.28s2.41-.1,3.57-.28v-15.96h5.32Z"/>
</svg>