<?xml version="1.0" encoding="UTF-8"?>
<svg id="Capa_1" data-name="Capa 1" xmlns="http://www.w3.org/2000/svg" viewBox="0 0 98 72">
  <defs>
    <style>
      .cls-1, .cls-2, .cls-3 {
        stroke-width: 0px;
      }

      .cls-2, .cls-3 {
        fill: #fff;
      }

      .cls-3 {
        fill-rule: evenodd;
      }
    </style>
  </defs>
  <circle class="cls-1" cx="45.48" cy="39.01" r="22.84" transform="translate(-13.78 47.88) rotate(-49.13)"/>
  <path class="cls-2" d="M33.14,51.94l1.9-7.11c-1.08-1.95-1.65-4.13-1.65-6.34,0-7.23,5.89-13.12,13.12-13.12s13.12,5.89,13.12,13.12-5.89,13.12-13.12,13.12c-2.17,0-4.32-.55-6.24-1.59l-7.14,1.91ZM40.64,47.36l.45.27c1.65.98,3.53,1.5,5.43,1.5,5.87,0,10.64-4.77,10.64-10.64s-4.77-10.64-10.64-10.64-10.64,4.77-10.64,10.64c0,1.94.54,3.84,1.56,5.52l.28.45-1.06,3.97,3.99-1.07Z"/>
  <path class="cls-3" d="M51.4,40.32c-.54-.32-1.24-.68-1.88-.42-.49.2-.8.96-1.12,1.35-.16.2-.36.23-.61.13-1.83-.73-3.24-1.95-4.25-3.64-.17-.26-.14-.47.07-.71.31-.36.69-.77.77-1.25.08-.48-.14-1.05-.34-1.48-.26-.55-.54-1.34-1.09-1.65-.51-.29-1.18-.13-1.63.24-.78.64-1.16,1.63-1.15,2.62,0,.28.04.56.1.83.16.65.46,1.26.8,1.84.26.44.53.86.83,1.27.98,1.33,2.2,2.49,3.61,3.35.71.43,1.46.81,2.25,1.07.88.29,1.67.59,2.62.41,1-.19,1.98-.81,2.38-1.77.12-.28.18-.6.11-.9-.14-.62-.98-.99-1.48-1.29Z"/>
</svg>