<?xml version="1.0" encoding="UTF-8"?>
<svg id="Capa_1" data-name="Capa 1" xmlns="http://www.w3.org/2000/svg" viewBox="0 0 75.5 62.56">
  <defs>
    <style>
      .cls-1, .cls-2 {
        stroke-width: 0px;
      }

      .cls-2 {
        fill: #fff;
      }
    </style>
  </defs>
  <circle class="cls-1" cx="33.34" cy="33.45" r="22.84"/>
  <g>
    <path class="cls-2" d="M20.37,22.05l10.59,12.01c.6.68,1.47,1.07,2.38,1.07s1.78-.39,2.38-1.07l10.41-11.81c.09-.1.19-.17.3-.23-.44-.19-.93-.3-1.44-.3h-23.28c-.49,0-.96.1-1.38.28.02.02.04.03.05.05Z"/>
    <path class="cls-2" d="M48.02,23.41c-.05.12-.11.24-.2.34l-10.41,11.81c-1.03,1.17-2.52,1.84-4.07,1.84s-3.04-.67-4.07-1.84l-10.59-12.01s-.04-.05-.06-.08c-.33.54-.52,1.17-.52,1.85v16.26c0,1.99,1.61,3.6,3.6,3.6h23.28c1.99,0,3.6-1.61,3.6-3.6v-16.26c0-.7-.2-1.36-.55-1.91Z"/>
  </g>
</svg>