<?xml version="1.0" encoding="UTF-8"?>
<svg id="Capa_1" data-name="Capa 1" xmlns="http://www.w3.org/2000/svg" viewBox="0 0 104.5 62.56">
  <defs>
    <style>
      .cls-1, .cls-2 {
        stroke-width: 0px;
      }

      .cls-2 {
        fill: #fff;
      }
    </style>
  </defs>
  <circle class="cls-1" cx="55.34" cy="31.44" r="22.84"/>
  <g>
    <path class="cls-2" d="M62.43,22.8c-.87,0-1.57.7-1.57,1.57s.7,1.57,1.57,1.57,1.57-.7,1.57-1.57-.7-1.57-1.57-1.57Z"/>
    <path class="cls-2" d="M55.45,24.81c-3.64,0-6.59,2.96-6.59,6.59s2.96,6.59,6.59,6.59,6.59-2.96,6.59-6.59-2.96-6.59-6.59-6.59ZM55.45,35.63c-2.33,0-4.22-1.9-4.22-4.22s1.9-4.22,4.22-4.22,4.22,1.89,4.22,4.22-1.89,4.22-4.22,4.22Z"/>
    <path class="cls-2" d="M60.69,44.79h-10.69c-4.44,0-8.04-3.61-8.04-8.04v-10.69c0-4.44,3.61-8.04,8.04-8.04h10.69c4.44,0,8.04,3.61,8.04,8.04v10.69c0,4.44-3.61,8.04-8.04,8.04ZM49.99,20.53c-3.05,0-5.52,2.48-5.52,5.52v10.69c0,3.05,2.48,5.52,5.52,5.52h10.69c3.05,0,5.52-2.48,5.52-5.52v-10.69c0-3.05-2.48-5.52-5.52-5.52h-10.69Z"/>
  </g>
</svg>